<svg id="Layer_1" data-name="Layer 1" xmlns="http://www.w3.org/2000/svg" viewBox="0 0 1161.07 1259.63"><defs><style>.cls-1,.cls-4{fill:#232323;}.cls-1,.cls-3{fill-rule:evenodd;}.cls-2,.cls-3{fill:#fff;}.cls-5{fill:#f7fdff;}</style></defs><path class="cls-1" d="M2134.21,572.84c291.87,0,528.48,236.61,528.48,528.49s-236.61,528.48-528.48,528.48-528.49-236.61-528.49-528.48,236.61-528.49,528.49-528.49Z" transform="translate(-1563.22 -370.19)"/><path class="cls-2" d="M2134.21,609.53a491.8,491.8,0,1,1-347.76,144.05,490.26,490.26,0,0,1,347.76-144.05ZM2467.49,768a471.34,471.34,0,1,0,138.05,333.29A469.87,469.87,0,0,0,2467.49,768Z" transform="translate(-1563.22 -370.19)"/><path class="cls-3" d="M2134.21,819.56c155.61,0,281.76,126.15,281.76,281.77s-126.15,281.76-281.76,281.76-281.77-126.15-281.77-281.76,126.15-281.77,281.77-281.77Z" transform="translate(-1563.22 -370.19)"/><path class="cls-4" d="M1935.39,370.19h-61.64a25.22,25.22,0,0,0-24.38,19.05L1825.69,484h157.77l-23.69-94.77a25.22,25.22,0,0,0-24.38-19.05Z" transform="translate(-1563.22 -370.19)"/><polygon class="cls-2" points="314.64 30.45 368.05 30.45 381.28 83.37 301.41 83.37 314.64 30.45 314.64 30.45"/><polygon class="cls-2" points="314.64 30.45 368.05 30.45 372.22 47.12 310.47 47.12 314.64 30.45 314.64 30.45"/><path class="cls-4" d="M1964.31,431.57H1844.83a29.38,29.38,0,0,0-29.34,29.34V551.5a29.4,29.4,0,0,0,29.34,29.34h119.48a29.38,29.38,0,0,0,29.34-29.34V460.91a29.36,29.36,0,0,0-29.34-29.34Z" transform="translate(-1563.22 -370.19)"/><polygon class="cls-2" points="282.72 91.83 399.98 91.83 399.98 180.2 282.72 180.2 282.72 91.83 282.72 91.83"/><polygon class="cls-2" points="399.98 112.64 399.98 180.2 282.72 180.2 282.72 112.64 399.98 112.64 399.98 112.64"/><path class="cls-4" d="M1974.3,505.55H1642.12a78.43,78.43,0,0,0-78.24,78.24v605.27a78.44,78.44,0,0,0,78.24,78.25H1974.3a78.46,78.46,0,0,0,78.25-78.25V583.79a78.44,78.44,0,0,0-78.25-78.24Zm-288.65,112H1777l-104.6,181.18V630.82a13.17,13.17,0,0,1,3.84-9.34l.06-.06a13.19,13.19,0,0,1,9.34-3.84Z" transform="translate(-1563.22 -370.19)"/><path class="cls-2" d="M1642.12,536H1974.3a48,48,0,0,1,47.8,47.8v605.27a48,48,0,0,1-47.8,47.8H1642.12a48,48,0,0,1-47.8-47.8V583.79a48,48,0,0,1,47.8-47.8Zm145,51.15H1685.65A43.61,43.61,0,0,0,1654.84,600l-.06.06a43.58,43.58,0,0,0-12.82,30.8V820.57a24.54,24.54,0,0,0,45.81,12.27l0,0L1808.37,624V624a24.57,24.57,0,0,0-21.25-36.81Z" transform="translate(-1563.22 -370.19)"/><path class="cls-2" d="M2022.1,1098.26v90.8a48,48,0,0,1-47.8,47.8H1642.12a48,48,0,0,1-47.8-47.8V583.79a48.07,48.07,0,0,1,39.85-47.13c4.34,21.28,9.7,44.22,16.34,68.33a43.32,43.32,0,0,0-8.55,25.83V820.57a24.54,24.54,0,0,0,45.81,12.27l0,0,30.33-52.53c59.14,115.47,153.22,233.45,304,317.93Z" transform="translate(-1563.22 -370.19)"/><path class="cls-4" d="M1928.92,716.24h-98.43q-94.29,158.29-188.56,316.59v105.79a45.48,45.48,0,0,0,13.38,32.14l.06,0a45.42,45.42,0,0,0,32.13,13.38h241.42a45.65,45.65,0,0,0,45.57-45.57V761.81a45.42,45.42,0,0,0-13.37-32.19l0,0a45.44,45.44,0,0,0-32.17-13.41Z" transform="translate(-1563.22 -370.19)"/><path class="cls-2" d="M1847.61,746.69h81.31a15,15,0,0,1,10.67,4.39v.06a15.08,15.08,0,0,1,4.46,10.67v376.81a15.23,15.23,0,0,1-15.13,15.13H1687.5a15.07,15.07,0,0,1-10.67-4.4l-.06-.06a15.05,15.05,0,0,1-4.4-10.67v-97.71l175.24-294.22Z" transform="translate(-1563.22 -370.19)"/><path class="cls-2" d="M1944.05,1048.13v90.49a15.23,15.23,0,0,1-15.13,15.13H1687.5a15.07,15.07,0,0,1-10.67-4.4l-.06-.06a15.05,15.05,0,0,1-4.4-10.67v-97.71L1772.9,872.12a738.69,738.69,0,0,0,171.15,176Z" transform="translate(-1563.22 -370.19)"/><path class="cls-4" d="M2436.06,441.74h229.22a28.76,28.76,0,0,1,20.36,8.45l0,0a28.71,28.71,0,0,1,8.48,20.33v57.18a28.81,28.81,0,0,1-25,28.52c-33.37,4.49-59.68,9.14-76.7,18.47-14.21,7.79-21.9,19.9-21.9,40.34v77.65H2423V597h.05c-.21-13.33-5.63-23.49-13.84-31.62-9.22-9.13-22.24-16.2-35.89-22.37l-.28-.16a36.14,36.14,0,0,1-17.59-19.25,47.08,47.08,0,0,1-3.44-18.94,47.58,47.58,0,0,1,4.56-19.39,41.22,41.22,0,0,1,21.71-20.67l55.06-22.81Z" transform="translate(-1563.22 -370.19)"/><path class="cls-4" d="M2643.57,533.13c1.72,13.18,5.89,30.56,12.56,50.73a526.14,526.14,0,0,0,24.21,59.93,26.61,26.61,0,0,1-41.23,31.72l-4.94-4.31q-3.12-2.76-5-4.52a283.3,283.3,0,0,1-39.91-46.49,340.23,340.23,0,0,1-31.36-56.68L2552,550.13l89.23-34.78,2.32,17.78Z" transform="translate(-1563.22 -370.19)"/><path class="cls-1" d="M2678.79,469h35.71a9.84,9.84,0,0,1,9.8,9.8v39.61a9.84,9.84,0,0,1-9.8,9.81h-35.71a4.16,4.16,0,0,1-4.14-4.15V473.18a4.16,4.16,0,0,1,4.14-4.15Z" transform="translate(-1563.22 -370.19)"/><path class="cls-2" d="M2629.37,592.67a370.25,370.25,0,0,1-10.59-38.41l-29,11.29a302.54,302.54,0,0,0,22.56,38.68,255,255,0,0,0,35.93,41.86l3.58,3.29a549.32,549.32,0,0,1-22.53-56.71Z" transform="translate(-1563.22 -370.19)"/><path class="cls-2" d="M2629.37,592.67a370.25,370.25,0,0,1-10.59-38.41l-19,7.42a297.08,297.08,0,0,0,17.76,29.26,261.31,261.31,0,0,0,20.74,26.37c-3.33-8.54-6.29-16.78-8.89-24.64Z" transform="translate(-1563.22 -370.19)"/><path class="cls-2" d="M2665.28,469.93H2438.74L2389,490.54a13.54,13.54,0,0,0-7.07,6.79,20.05,20.05,0,0,0-.46,15.54,8.88,8.88,0,0,0,3.44,4.45c16.2,7.3,32,16,44.16,28.08,13.17,13,21.82,29.5,22.1,51.39l.06.16v67.57h91.1V615.06c0-32.44,12.82-52,36.55-65,20.94-11.47,50-16.75,86.5-21.66a.7.7,0,0,0,.43-.21.81.81,0,0,0,.09-.45V470.55a.6.6,0,0,0-.14-.43h-.05a.65.65,0,0,0-.43-.19Z" transform="translate(-1563.22 -370.19)"/><path class="cls-2" d="M2665.28,469.93h-85.43c-26.93,43.62-68.89,89.46-129,120,.21,2.22.34,4.49.37,6.83l.06.16v67.57h91.1V615.06c0-32.44,12.82-52,36.55-65,20.94-11.47,50-16.75,86.5-21.66a.7.7,0,0,0,.43-.21.81.81,0,0,0,.09-.45V470.55a.6.6,0,0,0-.14-.43h-.05a.65.65,0,0,0-.43-.19Z" transform="translate(-1563.22 -370.19)"/><path class="cls-4" d="M2415.76,645.94H2568.7a32.71,32.71,0,0,1,23.17,9.65l.05,0a32.71,32.71,0,0,1,9.65,23.17V742.9a32.69,32.69,0,0,1-9.65,23.16l-.05.06a32.75,32.75,0,0,1-23.17,9.64H2415.76a32.75,32.75,0,0,1-23.17-9.64l-.05-.06a32.68,32.68,0,0,1-9.64-23.16V678.81a32.7,32.7,0,0,1,9.64-23.17l.05,0a32.71,32.71,0,0,1,23.17-9.65Z" transform="translate(-1563.22 -370.19)"/><path class="cls-2" d="M2568.7,674.13H2415.76a4.75,4.75,0,0,0-3.31,1.35l0,0a4.72,4.72,0,0,0-1.34,3.31V742.9a4.72,4.72,0,0,0,1.34,3.3l0,0a4.78,4.78,0,0,0,3.31,1.34H2568.7a4.77,4.77,0,0,0,3.31-1.34l0,0a4.76,4.76,0,0,0,1.34-3.3V678.81a4.77,4.77,0,0,0-1.34-3.31l0,0a4.73,4.73,0,0,0-3.31-1.35Z" transform="translate(-1563.22 -370.19)"/><path class="cls-2" d="M2552.4,674.13H2415.76a4.75,4.75,0,0,0-3.31,1.35l0,0a4.72,4.72,0,0,0-1.34,3.31v24.94h136.64a4.74,4.74,0,0,0,3.3-1.34l0,0a4.68,4.68,0,0,0,1.34-3.3v-25Z" transform="translate(-1563.22 -370.19)"/><path class="cls-4" d="M2591.66,727.12c25.64,16.39,48.4,49.21,65.1,86,18.37,40.46,29.83,86.44,29.83,120.53v299.64a41,41,0,0,1-12.62,29.5,42.71,42.71,0,0,1-29.8,12.11H2340.3a42.75,42.75,0,0,1-29.8-12.1,41.08,41.08,0,0,1-12.62-29.51V933.67c0-34.1,11.46-80.07,29.82-120.52,16.7-36.81,39.47-69.64,65.11-86l3.54-2.26h191.77l3.54,2.26Z" transform="translate(-1563.22 -370.19)"/><path class="cls-2" d="M2631.11,824.7c-13.9-30.62-31.84-57.65-51.23-71.65H2404.59c-19.39,14-37.33,41-51.23,71.66-16.81,37-27.29,78.58-27.29,109v299.64a13,13,0,0,0,4,9.36,14.61,14.61,0,0,0,10.2,4.06h303.87a14.58,14.58,0,0,0,10.2-4.07,13,13,0,0,0,4-9.35V933.67c0-30.37-10.49-71.94-27.29-109Z" transform="translate(-1563.22 -370.19)"/><path class="cls-2" d="M2631.11,824.7a292.21,292.21,0,0,0-14.42-27.84c-29.44,99.4-103.67,249.82-290.62,355.39v81.06a13,13,0,0,0,4,9.36,14.61,14.61,0,0,0,10.2,4.06h303.87a14.58,14.58,0,0,0,10.2-4.07,13,13,0,0,0,4-9.35V933.67c0-30.37-10.49-71.94-27.29-109Z" transform="translate(-1563.22 -370.19)"/><path class="cls-4" d="M1907.85,591.21a77.75,77.75,0,0,1,67.92,40.08l1.78-.37a76.74,76.74,0,0,1,39.33,2.56c1.31.44,2.61.91,3.88,1.41a87,87,0,0,1,156.34-21.71A76.77,76.77,0,0,1,2314.15,616a100.07,100.07,0,1,1,64.12,176.9c-138.67,0-150.21,5.64-158.09,9.49-6.36,3.12-11.2,5.48-33.91,5.48-4.24,0-24.85-5.35-54.12-13-68.39-17.76-186.38-48.39-224.3-48.39a77.65,77.65,0,0,1,0-155.29Z" transform="translate(-1563.22 -370.19)"/><path class="cls-4" d="M1859.81,747.2h619.05v13.64c0,76-16.5,155.87-66.83,212.1-40.09,44.77-100.93,74.12-190.82,74.12H2103.82c-89.88,0-150.72-29.35-190.81-74.12-50.33-56.23-66.84-136.05-66.84-212.1V747.2Z" transform="translate(-1563.22 -370.19)"/><path class="cls-5" d="M1937,627.72a50.39,50.39,0,1,0-29.14,91.51c41,0,161.37,31.24,231.11,49.34,27.11,7,46.19,12,47.31,12,16.66,0,19-1.13,22-2.6,10.26-5,25.3-12.38,170-12.38a72.83,72.83,0,1,0-59.38-115,13.64,13.64,0,0,1-24.68-6.55,49.5,49.5,0,0,0-98.74,5.07c0,1.95.07,3.59.2,4.91s.34,2.68.65,4.3a14.33,14.33,0,0,1-12.85,16.94c-1.38.12-2.74.24-4.11.38a14.32,14.32,0,0,1-15.74-14.4c0-.36,0-.72,0-1.09h-.05a59.67,59.67,0,0,0-119.24-3.5l-1,17.72a4.1,4.1,0,0,1-6.54,3l-14.18-10.64a51.07,51.07,0,0,0-39.94-9.08,49.33,49.33,0,0,0-9.24,2.77l-9.25,3.76a4.09,4.09,0,0,1-5.41-2.45l-3.29-9.46A50.6,50.6,0,0,0,1937,627.72Z" transform="translate(-1563.22 -370.19)"/><path class="cls-2" d="M1864.14,693.91a50.87,50.87,0,0,0,8.09,10.56,50.21,50.21,0,0,0,35.62,14.76c41,0,161.37,31.24,231.11,49.34,27.11,7,46.19,12,47.31,12,16.66,0,19-1.13,22-2.6,10.26-5,25.3-12.38,170-12.38a72.81,72.81,0,0,0,72.81-72.81v-1a72.82,72.82,0,0,0-125.69-12.1,13.64,13.64,0,0,1-24.67-6.55,49.5,49.5,0,0,0-98.74,5.06c0,2,.06,3.59.19,4.91s.34,2.69.65,4.3A14.32,14.32,0,0,1,2190,704.38l-4.11.38a14.31,14.31,0,0,1-15.73-14.39c0-.36,0-.73,0-1.09h-.06a59.5,59.5,0,0,0-2.92-18.49,13.66,13.66,0,0,1-3.5-8.47,59.67,59.67,0,0,0-112.81,23.46l-1,17.71a4.09,4.09,0,0,1-6.54,3L2029.1,695.9a49.57,49.57,0,0,0-30.21-10,50.84,50.84,0,0,0-9.73.92,49.52,49.52,0,0,0-9.24,2.76l-9.25,3.76a4.08,4.08,0,0,1-5.4-2.44l-3.3-9.47a50.4,50.4,0,0,0-97.83,12.48Z" transform="translate(-1563.22 -370.19)"/><path class="cls-4" d="M2175.36,500.5A59.87,59.87,0,1,1,2133,518a59.65,59.65,0,0,1,42.34-17.54Z" transform="translate(-1563.22 -370.19)"/><path class="cls-2" d="M2198,537.69a32.07,32.07,0,1,0,9.4,22.68,31.94,31.94,0,0,0-9.4-22.68Z" transform="translate(-1563.22 -370.19)"/><path class="cls-2" d="M2198,537.69a32.08,32.08,0,0,0-54.76,22.68c0,.54,0,1.08,0,1.61.29.32.59.63.89.93A32.09,32.09,0,0,0,2199,540.23c0-.54,0-1.08,0-1.61-.29-.31-.59-.63-.9-.93Z" transform="translate(-1563.22 -370.19)"/><path class="cls-4" d="M2018.43,483.25a51.09,51.09,0,1,1-36.06,87.21l-.06-.06a51.06,51.06,0,0,1,36.12-87.15Z" transform="translate(-1563.22 -370.19)"/><path class="cls-2" d="M2035.42,517.35a24,24,0,0,0-34,34l.06.06a24,24,0,0,0,34-34Z" transform="translate(-1563.22 -370.19)"/><path class="cls-2" d="M2032.62,515a24,24,0,0,0-38.21,19.39,25.1,25.1,0,0,0,.16,2.76,24,24,0,0,0,38.2-19.44,24.34,24.34,0,0,0-.15-2.71Z" transform="translate(-1563.22 -370.19)"/><path class="cls-2" d="M2162.52,774.47H1873.64c1.84,66.1,17.48,133.28,59.61,180.35,35.14,39.25,89.39,65,170.57,65h117.39c81.19,0,135.44-25.72,170.57-65,42.14-47.07,57.78-114.25,59.62-180.35Z" transform="translate(-1563.22 -370.19)"/><path class="cls-2" d="M1967.07,984.09c33.48,22.26,78.09,35.7,136.75,35.7h117.39c81.19,0,135.44-25.72,170.57-65,38.12-42.58,54.55-101.62,58.7-161.43-26.84.37-48.36.63-48.36.63-18.9,37.79-113,163-435,190.07Z" transform="translate(-1563.22 -370.19)"/><path class="cls-4" d="M1856.48,709.87h612.08a50.31,50.31,0,0,1,0,100.61H1856.48a50.31,50.31,0,0,1,0-100.61Z" transform="translate(-1563.22 -370.19)"/><path class="cls-4" d="M2318.14,553a36.37,36.37,0,0,1,25.76,10.69l0,.05a36.38,36.38,0,0,1,0,51.52l0,0a36.38,36.38,0,0,1-51.52,0l-.05,0a36.38,36.38,0,0,1,0-51.52l.05-.05A36.35,36.35,0,0,1,2318.14,553Z" transform="translate(-1563.22 -370.19)"/><path class="cls-2" d="M2328.92,578.71a15.37,15.37,0,1,0,4.41,10.77,15.25,15.25,0,0,0-4.41-10.77Z" transform="translate(-1563.22 -370.19)"/><path class="cls-2" d="M2325.73,576.29a15.23,15.23,0,0,0-21.8,18.62,15.24,15.24,0,0,0,21.8-18.62Z" transform="translate(-1563.22 -370.19)"/><path class="cls-2" d="M2468.56,737.14H1856.48a23,23,0,0,0,0,46.07h612.08a23,23,0,0,0,0-46.07Z" transform="translate(-1563.22 -370.19)"/><path class="cls-2" d="M2468.56,737.14H1856.48a23.15,23.15,0,0,0-23,23,23.48,23.48,0,0,0,.19,2.92h612.88a28.28,28.28,0,0,0,18.6-6.78,21.62,21.62,0,0,0,7.75-16.25,19.35,19.35,0,0,0-.17-2.54,22.5,22.5,0,0,0-4.13-.38Z" transform="translate(-1563.22 -370.19)"/><path class="cls-1" d="M2546.3,927.63c10.37-5.8,22.46-8,34.65-8h92.85v205.92H2581c-17.45,0-34.69,2.39-47-10.78-.47-.5-.92-1-1.36-1.51-16.69,13.68-37.44,12.29-58.95,12.29h-79.45v-8c-15.67,9.69-34.27,13.22-53,13.22-23.88,0-47.91-1.38-65.6-18.44a71,71,0,0,1-7.82-8.93q-1.29,1.38-2.64,2.73c-20.42,20.24-46.9,24.64-75.33,24.64-25.94,0-49.07-1.81-67.84-18.65v13.46H1874.24V848.31H2122v89c19.21-15.45,42.73-22.15,67.84-22.15,23.35,0,44.34,7,62,20.78V919.67h179v8.82c14.31-6.49,30.3-8.82,46.16-8.82h69.34v8Z" transform="translate(-1563.22 -370.19)"/><path class="cls-2" d="M2029.91,971.54V881.05h59.36v211.8h-59.36v-92.76h-63.57v92.76H1907V881.05h59.36v90.49Zm182.32,52.6q0-28.62-5.79-43.08t-17.57-14.38c-7.29,0-12.75,4.54-16.32,13.68s-5.41,22.92-5.41,41.4q0,28.8,5.9,43.31c3.89,9.67,9.73,14.48,17.46,14.48,7.3,0,12.76-4.59,16.32-13.78s5.41-23,5.41-41.63Zm-22.38,73.9q-30.9,0-51.41-22.49c-13.73-15-20.6-33.78-20.6-56.38,0-21.57,6.54-38.81,19.63-51.84s30.54-19.47,52.38-19.47c20.49,0,37.51,7.52,51.19,22.6s20.49,33.84,20.49,56.44q0,32.68-19.41,51.9T2189.85,1098Zm94.69-145.63h45.73v85.68q0,19,5.14,26.81c3.46,5.25,9.19,7.84,17.24,7.84,8.27,0,14.11-2.59,17.57-7.84s5.14-14.16,5.14-26.81V952.41h22.7v90.87q0,27.4-14.16,41.08T2341.24,1098q-29,0-42.86-13.35t-13.84-41.41V952.41ZM2427,1092.85v-21.08h37.3c8.7,0,14.76-1.19,18.22-3.57s5.13-6.32,5.13-12c0-7.19-7-12.86-21.08-17.08-4.22-1.24-7.57-2.27-10-3-13.79-4.54-23.3-9.62-28.38-15.35s-7.68-13.46-7.68-23.24q0-22.06,14.49-33.57t42-11.57h36.6v21.08h-31.68c-5.19,0-9.24.92-12.21,2.76a8.58,8.58,0,0,0-4.44,7.67c0,5.84,6.17,10.6,18.44,14.44,2.7.92,4.81,1.62,6.16,2,15,4.87,25.14,10.38,30.43,16.6s7.9,15,7.9,26.27q0,23.12-14.49,36.33t-40,13.24Zm154,0q-16.29,0-23-7.19t-6.7-25V984.57q0-17.76,6.7-25t23-7.19h60.11v21.08h-29.51c-5.84,0-9.73,1-11.68,3.14S2597,983,2597,989.17v22.92h44.11v21.08H2597v23.41c0,6.11,1,10.16,2.87,12.16s5.78,3,11.73,3h29.51v21.08Z" transform="translate(-1563.22 -370.19)"/><path class="cls-3" d="M1912.44,1022.16v65.23h48.44v-65.23Zm122.93,0v65.23h48.44v-65.23Zm88,0h38.35c0,14.13,1,31.79,6.29,45,4,10,11.1,17.89,22.52,17.89,10.94,0,17.65-7.65,21.4-17.25,5-12.77,5.79-30,5.79-43.62v-2H2256c.07,1.57.1,3.15.1,4.74,0,18.12-4.7,35-17.79,48s-30.24,17.67-48.43,17.67c-18.9,0-34.63-6.76-47.38-20.72s-18.59-30.95-19.13-49.71Zm166.65,0h34.82v15.93c0,9.28.8,21.82,6,29.8,5,7.57,13,10.31,21.81,10.31s17.13-2.65,22.14-10.31c5.22-8,6-20.52,6-29.8v-15.93h11.79v21.12c0,13.26-2.56,27.57-12.49,37.16-10.12,9.77-25.36,12.15-38.87,12.15-13.31,0-29-2.16-39.08-11.83-9.85-9.51-12.17-24.4-12.17-37.48v-21.12Zm148.33,0h79c4.21,6,5.35,13.94,5.35,21.12,0,12.43-3.35,23.77-12.71,32.29-9.93,9-23.23,11.82-36.32,11.82h-41.25v-10.17h31.84c6.72,0,15.63-.58,21.33-4.53,5.51-3.82,7.48-10,7.48-16.44,0-13-14.52-19.18-25-22.31-3.28-1-6.61-1.92-9.87-3-5.84-1.91-13.75-4.86-19.9-8.8Zm118.35,0h78.94v5.55H2591.5v28.87c0,5.22.58,11.92,4.35,15.91s10.43,4.73,15.7,4.73h24.06v10.17H2581c-6,0-14.66-.76-19-5.45-4.57-4.9-5.24-15-5.24-21.25v-38.53Z" transform="translate(-1563.22 -370.19)"/><path class="cls-1" d="M2523,1117c17.08-13,37.48-19.35,59.82-19.35,18.06,0,49.3,3.93,64.65,13.73,15.56,9.94,19.55,24.43,25.73,41.78l-1.79,14.12h14.15v189.18H2580.26v-51.69H2580c-24.14,0-45.83-7.9-63.31-23.67a44.37,44.37,0,0,1-2.88,4.79c-8.75,12.67-22.78,18.88-37.92,18.88a49,49,0,0,1-31.25-11.24c-1.57-1.28-3.09-2.66-4.55-4.11v10.4H2287.23a49.76,49.76,0,0,1-53.15-6.3q-2.35-1.92-4.54-4.1v10.4h-287.7a84.58,84.58,0,0,1-15.38-1.34v1.34h-69c-19.2,0-38.67-4.48-52.31-18.94a53.42,53.42,0,0,1-8.14-11.3,120,120,0,0,1-22.16,16.82c-21.9,12.95-46.46,18.37-71.75,18.37a152.91,152.91,0,0,1-48.45-7.51,132.59,132.59,0,0,1-41.79-22.86c-15.83-12.82-28.6-28.46-37.18-47s-12.41-38.22-12.41-58.51c0-38.51,12.69-73,40.33-100.12,27.8-27.24,62.93-39.24,101.46-39.24,22.18,0,43.93,4.33,63.56,14.91a117.23,117.23,0,0,1,19.47,13.19V1046h107.48v74.09c.32-.38.66-.75,1-1.12,11.86-12.71,28.48-17,45.32-17h94.28v28.13a65.67,65.67,0,0,1,12.33-17.1c10.85-10.54,25-15.36,40-15.36,14.32,0,27.9,4.45,38.38,14.44,8.75,8.35,14.15,19.87,18.09,31.25,1.52-10.26,5.18-20,12.12-28.18,10.35-12.15,25.14-17.51,40.81-17.51a59.26,59.26,0,0,1,29.15,7.51V1102h85.5v1.82a55.43,55.43,0,0,1,57.51,8.71c10.16-10.27,23.89-14.86,38.38-14.86a59.36,59.36,0,0,1,29.15,7.51V1102H2523v15Z" transform="translate(-1563.22 -370.19)"/><path class="cls-2" d="M1794.76,1218.6q-12.69,26.46-36.21,40.34t-55.5,13.92a120.72,120.72,0,0,1-38.38-5.88,103.32,103.32,0,0,1-60.09-53q-9.43-20.34-9.44-45.08,0-47.19,30.75-77.31t79.12-30.13q27.78,0,48.43,11.09t35.74,34.35l-25.68,18.93c-6.14-13.1-13.67-22.95-22.49-29.5a49.76,49.76,0,0,0-30.38-9.8q-26.14,0-40.49,21.1t-14.34,59.57q0,35.51,16.46,57.25t43.22,21.77a48.8,48.8,0,0,0,30.79-10.93c9.29-7.33,17.38-18.11,24.3-32.45l24.19,15.73Zm68.84,7.9c0,8.19,1.38,13.91,4.12,16.86s8.1,4.44,15.94,4.44h10.88v20.11h-37.13c-13.77,0-23.5-3-29.09-8.92s-8.36-16.56-8.36-31.88V1078h43.64V1226.5Zm78.24,41.41c-10.36,0-17.7-2.27-22-6.86s-6.4-12.53-6.4-23.83v-80.81q0-16.94,6.4-23.83c4.28-4.59,11.6-6.86,22-6.86h62.36v20.12H1971c-5.55,0-9.28,1-11.14,3s-2.78,6.05-2.78,12v21.87h42.09v20.11h-42.09v30.52c0,5.82.93,9.71,2.73,11.61s5.52,2.89,11.19,2.89h35.29v20.11Zm82.17,0,34.91-109.24c3.48-10.88,7.37-18.48,11.76-22.75s10.32-6.34,17.75-6.34q10.44,0,16.35,5.62c3.91,3.72,7.48,10.87,10.88,21.35l36.16,111.36H2106l-7.37-24.45H2054l-7.11,24.45Zm35.53-43H2093l-16-58.19-17.39,58.19Zm138.08-44.31v87.32H2176V1155.68q0-13.54,5.36-19.81c3.56-4.18,9.08-6.29,16.51-6.29a27.32,27.32,0,0,1,16.4,5.26c4.82,3.48,9.72,9.36,14.8,17.64l29.87,48.64v-67.21h21.66v116.62c0,8-1.17,13.78-3.56,17.23s-6.29,5.1-11.66,5.1a17.09,17.09,0,0,1-11.09-4.07c-3.35-2.73-7.67-7.72-12.32-15.37l-44.31-72.83Zm114.67,87.32v-76h43.63v76Zm-.93-113.65a22.9,22.9,0,1,1,45.8,0,21.84,21.84,0,0,1-6.71,16.2,22.27,22.27,0,0,1-16.24,6.65,22.89,22.89,0,0,1-22.85-22.85Zm96.81,26.33v87.32H2386.5V1155.68c0-9,1.82-15.64,5.37-19.81s9.07-6.29,16.5-6.29a27.32,27.32,0,0,1,16.4,5.26c4.82,3.47,9.73,9.37,14.81,17.64l29.86,48.64v-67.21h21.66v116.62c0,8-1.18,13.79-3.55,17.23s-6.3,5.1-11.66,5.1a17.09,17.09,0,0,1-11.09-4.07c-3.34-2.72-7.68-7.72-12.33-15.37l-44.3-72.83Zm245.48,18.62v125.34h-41.47v-61.33a55.59,55.59,0,0,1-15.26,7.22,59.19,59.19,0,0,1-16.92,2.42q-28.08,0-46.37-19.85t-18.31-51q0-32.25,19-52.3t48.54-20.11c13.51,0,24.76,2.92,33.83,8.71s15.63,14.29,19.65,25.59l-18.87,10.88c-2.12-8.35-5.32-14.65-9.6-18.83a21.77,21.77,0,0,0-15.83-6.24c-9.39,0-16.57,4.4-21.56,13.1s-7.48,21.41-7.48,38q0,26.84,6.19,38.73t20.16,12c7.69,0,13.42-2.32,17.18-7s5.67-11.71,5.67-21.1v-24.19Z" transform="translate(-1563.22 -370.19)"/><path class="cls-3" d="M1787.67,1220.5l-15-9.75c-5.85,10.9-13.32,21.22-23,28.86a54.15,54.15,0,0,1-34.16,12.1c-19.74,0-35.67-8.23-47.57-23.93-7.94-10.47-12.67-22.45-15.19-35h-49.59a93.8,93.8,0,0,0,6.4,19c6.18,13.32,15.42,24.42,26.8,33.64a95.37,95.37,0,0,0,30.07,16.45,115.91,115.91,0,0,0,36.65,5.6c18.52,0,36.65-3.66,52.72-13.17a84.92,84.92,0,0,0,31.9-33.74Zm37.74-27.73h32.73v33.73c0,6.69.8,15.43,5.59,20.58s13.2,6.17,19.93,6.17h5.43v9.21h-31.68c-7.93,0-19.31-1-25.12-7.22-6-6.39-6.88-19.89-6.88-28.13v-34.34Zm93.52,0h74.81v4.56h-42.09v36c0,5,.58,11.5,4.23,15.36s10,4.59,15.15,4.59h29.83v9.21h-59c-5.62,0-13.87-.72-18-5.13-4.31-4.62-4.93-14.18-4.93-20.11v-44.45Zm134.82,0h9.7l-11.23,37.58h47.91l-10.36-37.58h31.91l22.63,69.69H2110l-7.38-24.45h-52.76l-7.12,24.45h-11.28l22.27-69.69Zm127.66,0h10.75v69.69h-10.75v-69.69Zm30,0h35.95l17,27.66v-27.66h10.75v57.76c0,3.86-.3,10.82-2.59,14.12-1.59,2.3-4.56,2.76-7.17,2.76a11.65,11.65,0,0,1-7.64-2.85c-4.26-3.48-8.28-9.33-11.11-14l-35.17-57.81Zm180.54,0h10.75v69.69H2392v-69.69Zm30,0h35.95l17,27.66v-27.66h10.75v57.76c0,3.85-.31,10.83-2.59,14.13-1.59,2.29-4.58,2.75-7.17,2.75a11.68,11.68,0,0,1-7.65-2.85c-4.25-3.47-8.28-9.34-11.11-14L2422,1192.77Zm99.25,0h36.51c-.14,2.74-.2,5.44-.2,8,0,12.61.88,29.86,6.81,41.25,5.17,9.94,13.85,14.91,25,14.91,8.29,0,16.1-2.4,21.44-9.06s6.87-16.05,6.87-24.51v-18.74h30.56v114.43h-30.56V1253l-8.49,5.7a50.83,50.83,0,0,1-13.79,6.52,53.62,53.62,0,0,1-15.36,2.2c-16.79,0-31-5.71-42.36-18.1-12.15-13.21-16.86-29.56-16.86-47.32q0-4.68.43-9.22Zm-203.47,69.69h32.72v-65.13h-32.72v65.13Z" transform="translate(-1563.22 -370.19)"/><path class="cls-1" d="M1835.79,1430H2596.9v74.09a45.1,45.1,0,0,1-45,45H1900l-64.18-58.64V1430Z" transform="translate(-1563.22 -370.19)"/><path class="cls-1" d="M2469.33,1306c11.6-12,27.6-16.14,43.86-16.14H2597v191h-83.79c-16.56,0-32.89-4.36-44.53-16.84l-.34-.37a86.1,86.1,0,0,1-8.86,7c-14.83,10.14-31.85,14.89-49.78,14.89-21.32,0-40.89-6-57.2-18.5v13.87H2246.14v-20.54a59.12,59.12,0,0,1-7.82,9.3c-11.23,10.82-25.77,15.87-41.26,15.87a63.7,63.7,0,0,1-24.43-4.63H1921.11c-11.44,0-22.78-2.08-32.54-7.5a90.52,90.52,0,0,1-20,25.64c-20.24,18.21-45.53,25.93-72.51,25.93-19.58,0-38.5-4.32-55.55-14.09a96.84,96.84,0,0,1-39-41.35l-13.52-27,41.26-24.89c-8-7.48-15-16.08-19.76-26-5.39-11.22-7.67-23.46-7.67-35.87,0-26.48,9.3-50.23,28.61-68.48s43.85-26.28,70.25-26.28c18.86,0,37,4.35,53.21,14.15a94.07,94.07,0,0,1,28.35,26.47c11-8.54,24.82-11.66,38.86-11.66h147.32a129.44,129.44,0,0,1,26.48,2.53l-.73-2.53h112.13l.61,2.28.6-2.28h44.86a54.22,54.22,0,0,1,8.76-11.4,54.15,54.15,0,0,1,91.28,26.71c16.63-13,36.56-19.36,58.42-19.36,17.44,0,34.49,3.84,49.31,13.31a76.8,76.8,0,0,1,9.18,6.88Z" transform="translate(-1563.22 -370.19)"/><path class="cls-2" d="M1756.84,1439.12q5.79,13.7,14.49,21.07a29.22,29.22,0,0,0,19.17,7.34q10.8,0,17.68-6.38a20.64,20.64,0,0,0,7-15.94,21.5,21.5,0,0,0-5.22-14.1c-3.48-4.16-9.18-8.46-17.1-12.75l-7.54-4.11q-25.79-13.77-31-18.26c-7.2-6.23-12.27-12.46-15.27-18.64a50.05,50.05,0,0,1-4.44-21.69q0-27.39,18.35-44.68t47.77-17.34q20.73,0,36.28,9.42t24.34,27.15l-21.54,15q-5.65-13.62-14.35-20.43a32.58,32.58,0,0,0-20.72-6.81c-6.66,0-12.22,2.08-16.61,6.23a20.55,20.55,0,0,0-6.57,15.6,19.92,19.92,0,0,0,5.46,13.86c3.62,4,10.58,8.6,21,13.91l3.53,1.84c19.36,9.61,31,16,35,19.37,7,5.74,12,11.78,15.12,18.16s4.59,13.76,4.59,22.27q0,27.88-19.47,45.39t-50.61,17.54q-22.24,0-39.27-9.76a64,64,0,0,1-26-27.58l26-15.7Zm164.27,9c-9.65,0-16.58-2.14-20.58-6.43s-6-11.73-6-22.31v-68q0-15.87,6-22.31t20.58-6.43h58.4v18.84h-31.06c-5.19,0-8.69.92-10.43,2.8s-2.61,5.68-2.61,11.21v20.48h39.41v18.84h-39.41v20.91c0,5.43.87,9.08,2.56,10.87s5.17,2.7,10.48,2.7h33v18.84Zm92.6,0V1322.6h54.72q25.29,0,38.5,9.57c8.72,6.31,13.14,15.6,13.14,27.77,0,8.4-2,15.28-5.85,20.53s-9.8,9-17.63,11.15l36.81,56.47h-47.82l-28.5-59.12v-2.27c7.87-1.16,13.6-3.67,17.24-7.58s5.46-9.52,5.46-16.76-1.93-13-5.79-16.72-9.62-5.65-17.2-5.65c-1.11,0-2,0-2.71,0s-1.25.15-1.83.24v107.81Zm240.53-125.49L2226.67,1424c-2.76,10.17-6.46,17.54-11.06,22s-10.82,6.71-18.55,6.71-14-2.15-18.45-6.37-8.36-11.53-11.4-22l-29.46-101.73h43.47l26,96.8,25.5-96.8Zm24.64,125.49v-90.34h40.86v90.34Zm-.87-131.27a21.45,21.45,0,1,1,42.89,0,20.64,20.64,0,0,1-6.28,15.17,21.06,21.06,0,0,1-15.21,6.22,21.42,21.42,0,0,1-21.4-21.39Zm184.32,100c-5.27,11.64-12.42,20.6-21.35,26.71s-19.42,9.17-31.3,9.17q-27.45,0-44.77-18.54t-17.35-48.11q0-29.7,17.93-48.64t45.35-18.89q18.91,0,31.69,8.17c8.47,5.41,14.63,13.38,18.4,24l-17.73,10.19c-2-7.83-5-13.73-9-17.63a20.49,20.49,0,0,0-14.83-5.85q-13.18,0-20.19,12.22c-4.67,8.15-7,20.05-7,35.6q0,25.07,5.95,36.42c3.94,7.57,10.29,11.4,19,11.4a26.32,26.32,0,0,0,17.58-6.91c5.3-4.57,9.13-10.82,11.5-18.6l16.13,9.33Zm50.86,31.25c-9.63,0-16.58-2.13-20.58-6.43s-6-11.73-6-22.31v-68q0-15.87,6-22.31c4-4.28,10.87-6.43,20.58-6.43h51v18.84h-23.72c-5.17,0-8.69.92-10.43,2.8s-2.6,5.68-2.6,11.21v20.48h36.75v18.84h-36.75v20.91c0,5.43.86,9.08,2.55,10.87s5.17,2.7,10.48,2.7h23.72v18.84Z" transform="translate(-1563.22 -370.19)"/><path class="cls-3" d="M1754.46,1446.93l-16.36,9.86a58.33,58.33,0,0,0,21.4,20.88c11.24,6.44,23.68,9,36.56,9,17.42,0,33.83-4.31,47-16.13,12.26-11,17.65-24.93,17.65-41.34a45.61,45.61,0,0,0-4-19.91c-3.08-6.4-8.25-11.83-13.68-16.32-2.94-2.44-7.53-4.89-10.88-6.75l-.85-.47h-79.7a78.29,78.29,0,0,0,6.32,6.08,72.32,72.32,0,0,0,9.56,6.24c6.71,4,13.59,7.67,20.49,11.36l7.54,4.11c6.56,3.57,13.86,8.25,18.68,14a26.94,26.94,0,0,1,6.48,17.59,26.22,26.22,0,0,1-8.72,20c-6,5.46-13.33,7.8-21.37,7.8a34.54,34.54,0,0,1-22.69-8.63,56.05,56.05,0,0,1-13.35-17.42ZM1900,1385.78h69.36v3.53H1930v26.37c0,4.83.57,10.93,4,14.62s9.56,4.41,14.45,4.41H1976v7.92h-54.92c-5.12,0-12.83-.66-16.58-4.69-4-4.23-4.53-13.16-4.53-18.59v-33.57Zm119.16,0h27.63v56.85h-27.63v-56.85Zm55.84,0h22.07c-.64.21-1.29.41-1.94.59l-7.18,2,35.38,54.27H2089l-25-51.8a32.8,32.8,0,0,0,11-5Zm86.72,0h30.84l14.75,54.83,14.44-54.83h9.66l-10,36.82c-1.73,6.37-4.7,14.79-9.58,19.48-4,3.89-9.27,5.19-14.76,5.19-5.32,0-10.73-1.13-14.7-4.88-4.9-4.63-8.08-13.27-9.91-19.58l-10.73-37Zm122.62,0h29.95v56.85h-29.95v-56.85Zm68.68,0h33.72c0,12,1,27.68,6.56,38.37,4.92,9.44,13.18,14.32,23.82,14.32a31.77,31.77,0,0,0,21.14-8.23,41.82,41.82,0,0,0,10.79-14.77l6.13,3.54a55.09,55.09,0,0,1-17.28,20c-8.46,5.78-18,8.22-28.22,8.22-16,0-29.8-5-40.78-16.82-11.51-12.32-15.88-27.73-15.88-44.38v-.29Zm139.06,0h66.7v3.53H2522v26.37c0,4.83.56,10.93,4,14.62s9.55,4.41,14.45,4.41h18.25v7.92h-45.59c-5.12,0-12.84-.67-16.59-4.69-3.95-4.24-4.52-13.15-4.52-18.59v-33.57Z" transform="translate(-1563.22 -370.19)"/><path class="cls-2" d="M1895.31,1518.88v-5.76h2.62v-28.37h-2.62v-5.82h29.13v12.93h-5.51v-7.11h-10.24v11.89h3.19v-5.81h4.17v16.83h-4.17v-5.61h-3.19v11.07h3.14v5.76Zm56.24-32.48c0-1.1-.46-1.65-1.39-1.65h-3.4v11.48h3.4c.93,0,1.39-.5,1.39-1.49v-8.34Zm12.56,17.5h3.19v10.5a6.13,6.13,0,0,1-.36,2.19,3.26,3.26,0,0,1-1.26,1.57,6.69,6.69,0,0,1-2.44.93,21.06,21.06,0,0,1-3.92.31,18.31,18.31,0,0,1-3.65-.31,6.08,6.08,0,0,1-2.29-.93,3.21,3.21,0,0,1-1.18-1.54,6.22,6.22,0,0,1-.34-2.17v-11.37c0-1-.46-1.5-1.39-1.5h-3.71v11.54h2.42v5.76h-15.8v-5.76H1936v-28.37h-2.63v-5.82h21.78c2.4,0,4.15.43,5.25,1.27a4.59,4.59,0,0,1,1.64,3.88v8.55a8.83,8.83,0,0,1-.41,3,4.73,4.73,0,0,1-1.11,1.85,4.12,4.12,0,0,1-1.67,1,12.84,12.84,0,0,1-2.11.46,17.85,17.85,0,0,1,2.11.33,4.52,4.52,0,0,1,1.8.83,4.08,4.08,0,0,1,1.24,1.57,6,6,0,0,1,.46,2.57v9.37c0,.55.29.82.88.82s.87-.27.87-.82v-9.68Zm12.13,15v-5.76H1979v-28.37h-2.73v-5.82h28.88v12.93h-5.51V1485h-9.88v11.27h3.09v-5.87H1997v16.84h-4.17v-5.62h-3.09v11.33h10.14v-7.21h5.51v13.18Zm64.69-7.56a7.23,7.23,0,0,1-2.6,6c-1.73,1.37-4.37,2.06-7.9,2.06a15.71,15.71,0,0,1-3.55-.36,12.82,12.82,0,0,1-2.71-.93,9,9,0,0,1-1.93-1.24,8.82,8.82,0,0,1-1.28-1.34v3.35h-5.51V1505.7h5.45v4a3.36,3.36,0,0,0,1.45,2.75,7,7,0,0,0,4.32,1.11c2,0,3.3-.31,4-.93a2.84,2.84,0,0,0,1.11-2.26v-2a6.19,6.19,0,0,0-.29-2,3,3,0,0,0-1-1.41,7.5,7.5,0,0,0-2-1.11c-.84-.34-1.91-.7-3.22-1.08a30,30,0,0,1-4.53-1.62,9.89,9.89,0,0,1-2.88-2,6.11,6.11,0,0,1-1.52-2.6,12.75,12.75,0,0,1-.44-3.55v-7.1a6.72,6.72,0,0,1,2.47-5.54q2.47-2,7.78-2a13.12,13.12,0,0,1,5.92,1.11,6.82,6.82,0,0,1,3,2.75v-3.35h5.55v12.93h-5.5v-3.56a3.81,3.81,0,0,0-1.24-2.93c-.82-.76-2.21-1.13-4.17-1.13a7.24,7.24,0,0,0-4,.8,2.32,2.32,0,0,0-1.11,1.93v2.31a5,5,0,0,0,.29,1.78,3,3,0,0,0,1,1.31,7.44,7.44,0,0,0,2.08,1c.89.31,2.06.64,3.5,1a23.42,23.42,0,0,1,4.48,1.44,9,9,0,0,1,2.88,2,6.73,6.73,0,0,1,1.55,2.78,14.66,14.66,0,0,1,.46,3.89v6.85Zm29.07,7.56v-5.76h2.47v-11.54h-7.93v11.54h2.57v5.76h-16.06v-5.76h2.73v-28.37h-2.73v-5.82h16.06v5.82h-2.57v11.48h7.93v-11.48H2070v-5.82h15.8v5.82H2083v28.37h2.83v5.76Zm57.75-31.5-3.2,16.52h6.23l-3-16.52Zm2.88,31.5v-5.82h1.9l-.77-4.16h-8.08l-.83,4.16H2125v5.82h-12.72v-5.82h3.91l7.26-34.13h11.63l8.34,34.13h3.25v5.82Zm47.44,0-15.91-24.19v18.43H2165v5.76h-10v-5.76h2.73v-28.37H2155v-5.82h10.24l13.44,20.55v-14.73h-3.2v-5.82H2186v5.82h-2.83v34.13Zm35.71-31.71a2.87,2.87,0,0,0-.47-1.9,2.37,2.37,0,0,0-1.8-.52h-2.42v28.37h2.42a2.33,2.33,0,0,0,1.8-.54,3.24,3.24,0,0,0,.47-2v-23.37Zm-18.18,31.71v-5.76h2.73v-28.37h-2.73v-5.82h20.29a19,19,0,0,1,4,.37,5.92,5.92,0,0,1,2.68,1.26,5.26,5.26,0,0,1,1.52,2.44,13.44,13.44,0,0,1,.48,3.91v24.46a12.08,12.08,0,0,1-.46,3.62,4.73,4.73,0,0,1-1.49,2.32,6.19,6.19,0,0,1-2.65,1.21,18.44,18.44,0,0,1-3.94.36Zm57.8,0v-5.76H2256v-28.37h-2.63v-5.82h29.14v12.93H2277v-7.11h-10.24v11.89H2270v-5.81h4.17v16.83H2270v-5.61h-3.19v11.07h3.14v5.76Zm56.25-32.48c0-1.1-.46-1.65-1.39-1.65h-3.4v11.48h3.4c.93,0,1.39-.5,1.39-1.49v-8.34Zm12.56,17.5h3.19v10.5a6.13,6.13,0,0,1-.36,2.19,3.26,3.26,0,0,1-1.26,1.57,6.76,6.76,0,0,1-2.44.93,21.06,21.06,0,0,1-3.92.31,18.31,18.31,0,0,1-3.65-.31,6.08,6.08,0,0,1-2.29-.93,3.3,3.3,0,0,1-1.19-1.54,6.47,6.47,0,0,1-.33-2.17v-11.37c0-1-.47-1.5-1.39-1.5h-3.71v11.54h2.42v5.76h-15.8v-5.76h2.62v-28.37h-2.62v-5.82h21.77c2.41,0,4.16.43,5.25,1.27a4.57,4.57,0,0,1,1.65,3.88v8.55a9.09,9.09,0,0,1-.41,3,4.73,4.73,0,0,1-1.11,1.85,4.12,4.12,0,0,1-1.67,1,13.08,13.08,0,0,1-2.11.46,18.18,18.18,0,0,1,2.11.33,4.52,4.52,0,0,1,1.8.83,4.08,4.08,0,0,1,1.24,1.57,6,6,0,0,1,.46,2.57v9.37c0,.55.29.82.88.82s.87-.27.87-.82v-9.68Zm26.39-16.52-3.19,16.52h6.23l-3-16.52Zm2.88,31.5v-5.82h1.91l-.78-4.16h-8.08l-.82,4.16h2.11v5.82h-12.71v-5.82H2337l7.26-34.13h11.63l8.34,34.13h3.24v5.82Zm44.31,0-.88-3.24a5.73,5.73,0,0,1-1,1.34,7.33,7.33,0,0,1-1.67,1.21,9.89,9.89,0,0,1-2.42.87,14.47,14.47,0,0,1-3.27.34q-5.57,0-8.29-2a6.44,6.44,0,0,1-2.73-5.53v-26.05q0-3.86,2.6-5.63c1.74-1.19,4.35-1.78,7.85-1.78a14,14,0,0,1,6.05,1.11,6.73,6.73,0,0,1,3.17,2.75v-3.35h5.51v12.93h-5.46v-5.92c0-.59-.39-1-1.16-1.39a9,9,0,0,0-3.53-.52,7.13,7.13,0,0,0-3.32.57,1.85,1.85,0,0,0-1,1.7v24.55a1.94,1.94,0,0,0,.72,1.73,4.19,4.19,0,0,0,2.27.48c2.19,0,3.29-.55,3.29-1.64v-6h-2.83v-4.11h13.07v4.11h-1.95v13.49Zm34.72-32.48c0-1.1-.46-1.65-1.39-1.65h-3.39v11.48h3.39c.93,0,1.39-.5,1.39-1.49v-8.34Zm12.56,17.5h3.19v10.5a6.37,6.37,0,0,1-.35,2.19,3.22,3.22,0,0,1-1.27,1.57,6.69,6.69,0,0,1-2.44.93,21,21,0,0,1-3.91.31,18.35,18.35,0,0,1-3.66-.31,6.15,6.15,0,0,1-2.29-.93,3.21,3.21,0,0,1-1.18-1.54,6.46,6.46,0,0,1-.34-2.17v-11.37c0-1-.46-1.5-1.39-1.5h-3.7v11.54h2.42v5.76h-15.81v-5.76H2415v-28.37h-2.63v-5.82h21.78c2.4,0,4.15.43,5.25,1.27a4.56,4.56,0,0,1,1.64,3.88v8.55a8.83,8.83,0,0,1-.41,3,4.84,4.84,0,0,1-1.1,1.85,4.16,4.16,0,0,1-1.68,1,12.84,12.84,0,0,1-2.11.46,17.85,17.85,0,0,1,2.11.33,4.63,4.63,0,0,1,1.81.83,4.15,4.15,0,0,1,1.23,1.57,6,6,0,0,1,.46,2.57v9.37c0,.55.3.82.88.82s.87-.27.87-.82v-9.68Zm26.39-16.52-3.19,16.52h6.23l-3-16.52Zm2.89,31.5v-5.82h1.9l-.77-4.16h-8.08l-.83,4.16h2.11v5.82H2454v-5.82h3.91l7.26-34.13h11.63l8.34,34.13h3.24v5.82Zm47.44,0-15.91-24.19v18.43h2.83v5.76h-10v-5.76h2.73v-28.37h-2.73v-5.82h10.25l13.43,20.55v-14.73h-3.19v-5.82h10.56v5.82h-2.83v34.13Zm22.47,0v-5.76H2545v-28.37h-3.86v7.11h-5.45v-12.93h29.44v12.93h-5.51v-7.11h-3.86v28.37h2.83v5.76Z" transform="translate(-1563.22 -370.19)"/><path class="cls-3" d="M1896.67,1517.52h13.8v-3h-3.14v-13.8h5.92v5.62h1.44v-7.5H1899.3v15.68h-2.63v3Zm657.77-18.72h-8v15.68h-2.78v3h13.64v-3h-2.83V1498.8Zm-30.92,0h-1.8v5.25l-3.44-5.25h-10.06l12.3,18.72h3V1498.8Zm-21,0h-1.75v15.68H2498v3h7.31v-3h-2.83V1498.8Zm-22.3,0H2473l1.19,6.47h-9.52l1.25-6.47h-3.56l-3.32,15.63h-3.66v3.09h10v-3.09h-2.41l1.36-6.9h10.34l1.28,6.9h-2.18v3.09H2487v-3.09H2484l-3.82-15.63Zm-45.87,0h-18v15.68h-2.62v3h13.07v-3h-2.42v-14.26h5.07a2.62,2.62,0,0,1,2.76,2.86v11.37a5.11,5.11,0,0,0,.25,1.7,2,2,0,0,0,.7.91,4.79,4.79,0,0,0,1.78.69,16.5,16.5,0,0,0,3.37.28,19.29,19.29,0,0,0,3.64-.28,5.53,5.53,0,0,0,1.94-.71,2,2,0,0,0,.76-.93,4.94,4.94,0,0,0,.27-1.71v-9.13h-.46v8.31a2.24,2.24,0,0,1-4.48,0v-9.37a5,5,0,0,0-.33-2,2.92,2.92,0,0,0-.83-1.07,3.31,3.31,0,0,0-1.28-.58,15.66,15.66,0,0,0-1.94-.3l-1.21-.12,0-1.35Zm-49.5,0h-8v13.08a5.11,5.11,0,0,0,2.16,4.43c2,1.44,5.12,1.72,7.49,1.72a12.82,12.82,0,0,0,3-.3,8.09,8.09,0,0,0,2.08-.75,5.39,5.39,0,0,0,1.35-1,4.4,4.4,0,0,0,.8-1l1.62-3,1.5,5.55h2.58V1504h2v-1.39H2391V1504h2.82v7.39c0,2.52-2.68,3-4.65,3a5.39,5.39,0,0,1-3-.73,3.24,3.24,0,0,1-1.32-2.85v-12Zm-25.49,0h-7.27l1.18,6.47h-9.52l1.25-6.47h-3.56l-3.32,15.63h-3.65v3.09h10v-3.09h-2.41l1.36-6.9h10.34l1.28,6.9h-2.18v3.09h13.28v-3.09h-3l-3.82-15.63Zm-45.88,0h-18v15.68h-2.63v3h13.08v-3h-2.42v-14.26h5.07a2.62,2.62,0,0,1,2.75,2.86v11.37a4.88,4.88,0,0,0,.26,1.7,1.85,1.85,0,0,0,.7.91,4.72,4.72,0,0,0,1.78.69,16.46,16.46,0,0,0,3.36.28,19.39,19.39,0,0,0,3.65-.28,5.6,5.6,0,0,0,1.94-.71,2,2,0,0,0,.76-.93,4.94,4.94,0,0,0,.27-1.71v-9.13h-.47v8.31a2.24,2.24,0,0,1-4.47,0v-9.37a4.83,4.83,0,0,0-.34-2,2.72,2.72,0,0,0-.83-1.07,3.34,3.34,0,0,0-1.27-.58,16,16,0,0,0-1.94-.3l-1.21-.12,0-1.35Zm-40.69,0h-15.4v15.68h-2.62v3h13.79v-3h-3.14v-13.8h5.92v5.62h1.45v-7.5Zm-49.57,0h-8.08v11.74a4.54,4.54,0,0,1-.79,2.92,3.61,3.61,0,0,1-2.84,1h-3.78V1498.8h-8v15.68H2197v3H2216a17.07,17.07,0,0,0,3.64-.33,5,5,0,0,0,2.08-.93,3.51,3.51,0,0,0,1.06-1.68,10.86,10.86,0,0,0,.4-3.22V1498.8Zm-41.42,0H2180v5.25l-3.43-5.25H2166.5l12.31,18.72h3V1498.8Zm-21,0h-1.75v15.68h-2.73v3h7.31v-3h-2.83V1498.8Zm-22.29,0h-7.28l1.19,6.47h-9.52l1.25-6.47h-3.56l-3.32,15.63h-3.66v3.09h10v-3.09h-2.41l1.37-6.9h10.33l1.28,6.9H2132v3.09h13.28v-3.09h-2.95l-3.81-15.63Zm-56.91,0h-26.46v15.68h-2.72v3h13.33v-3h-2.57v-14.26h10.65v14.26h-2.47v3h13.07v-3h-2.83V1498.8Zm-43.61,0h-18.46a9.78,9.78,0,0,0,1.86,1.12,29.57,29.57,0,0,0,4.32,1.54,30.83,30.83,0,0,1,3.36,1.13,9.23,9.23,0,0,1,2.33,1.31,4.5,4.5,0,0,1,1.43,2,7.81,7.81,0,0,1,.35,2.45v2a4.2,4.2,0,0,1-1.59,3.31c-1.28,1.07-3.32,1.24-4.92,1.24a8.39,8.39,0,0,1-5.15-1.39,4.69,4.69,0,0,1-2-3.83v-2.65h-2.73v10.45h2.78v-6l2.45,3.17a7.42,7.42,0,0,0,1.1,1.14,7.52,7.52,0,0,0,1.63,1,10.82,10.82,0,0,0,2.42.83,14.66,14.66,0,0,0,3.24.32c2.28,0,5.2-.29,7-1.76a5.92,5.92,0,0,0,2.09-5v-6.85a13,13,0,0,0-.42-3.52,5.43,5.43,0,0,0-1.16-2.15Zm-42.37,0h-15.29v15.68h-2.72v3H2004v-10.45h-2.78v7.2h-12.87v-14h5.82v5.61h1.44v-7Zm-40.24,0h-18v15.68h-2.62v3h13.07v-3h-2.42v-14.26h5.07a2.62,2.62,0,0,1,2.75,2.86v11.37a5.12,5.12,0,0,0,.26,1.7,1.91,1.91,0,0,0,.7.91,4.72,4.72,0,0,0,1.78.69,16.46,16.46,0,0,0,3.36.28,19.39,19.39,0,0,0,3.65-.28,5.53,5.53,0,0,0,1.94-.71,2,2,0,0,0,.76-.93,4.94,4.94,0,0,0,.27-1.71v-9.13h-.46v8.31a2.24,2.24,0,0,1-4.48,0v-9.37a5,5,0,0,0-.33-2,2.92,2.92,0,0,0-.84-1.07,3.27,3.27,0,0,0-1.27-.58,15.66,15.66,0,0,0-1.94-.3l-1.21-.12,0-1.35Z" transform="translate(-1563.22 -370.19)"/></svg>